<?xml version="1.0" encoding="iso-8859-1"?>
<!-- Generator: Adobe Illustrator 18.0.0, SVG Export Plug-In . SVG Version: 6.00 Build 0)  -->
<!DOCTYPE svg PUBLIC "-//W3C//DTD SVG 1.1//EN" "http://www.w3.org/Graphics/SVG/1.1/DTD/svg11.dtd">
<svg xmlns="http://www.w3.org/2000/svg" xmlns:xlink="http://www.w3.org/1999/xlink" version="1.1" id="Capa_1" x="0px" y="0px" viewBox="0 0 458.045 458.045" style="enable-background:new 0 0 458.045 458.045;" xml:space="preserve" width="512px" height="512px">
<g>
	<circle cx="234.356" cy="41.426" r="37.681" fill="#22313f"/>
	<path d="M114.488,38.254l52.637,20.74c5.417,2.134,11.539-0.527,13.674-5.944l7.052-17.899c2.134-5.417-0.527-11.539-5.944-13.674   L129.27,0.737c-5.417-2.135-11.539,0.527-13.674,5.944l-7.052,17.899C106.409,29.997,109.071,36.119,114.488,38.254z" fill="#22313f"/>
	<path d="M450.33,367.836c0-49.741-40.467-90.209-90.209-90.209c-5.875,0-11.618,0.571-17.183,1.649l-17.949-53.333l12.342,6.171   c5.91,2.954,13.093,0.559,16.048-5.349c2.954-5.909,0.559-13.093-5.349-16.048l-21.054-10.527c0.107,2.911-0.154,5.882-0.832,8.856   c-2.841,12.466-12.172,21.763-23.615,25.156l4.642,13.792c-38.475,1.135-30.833,0.91-52.53,1.55   c1.25-9.261-3.962-18.399-12.943-21.847l-29.901-9.69c-9.625-2.193-16.386-10.297-17.369-19.595l-6.911-66.371l22.874,60.318   c2.027,5.345,6.595,9.321,12.17,10.591l66.502,15.155c1.277,0.291,2.552,0.431,3.809,0.431c7.789,0,14.825-5.367,16.63-13.282   c2.095-9.193-3.659-18.344-12.852-20.439l-57.578-13.121l-19.629-51.76l20.59,28.77l5.833-15.276   c5.015-13.133-1.567-27.845-14.7-32.86l-42.407-16.192c-6.921-2.643-14.279-2.062-20.427,0.998   c-1.885-7.91-7.517-14.781-15.686-17.901l-42.407-16.192c-13.133-5.015-27.845,1.567-32.86,14.7l-18.941,49.608   c-15.267,39.985,4.771,84.777,44.756,100.044c2.973,1.135,6.054,1.458,9.006,1.092c4.775-0.592,9.201-3.01,12.281-6.796   l8.016,16.27h-7.562c-3.57,0-6.828,1.311-9.339,3.467c-3.065,2.632-5.014,6.528-5.014,10.886c0,7.927,6.426,14.353,14.353,14.353   h23.705l2.432,5.864l-16.768,24.526c-11.134-4.926-23.44-7.669-36.377-7.669c-49.742,0-90.209,40.467-90.209,90.209   c0,49.742,40.467,90.209,90.209,90.209c43.819,0,80.435-31.408,88.534-72.893c3.046,1.561,6.614,1.784,9.899,0.471   c7.065-2.826,33.62-13.448,47.844-19.138c6.133-2.454,9.117-9.415,6.664-15.548c-0.99-2.474-2.721-4.425-4.828-5.724l70.596-69.102   l3.638,10.811c-29.808,14.74-50.359,45.47-50.359,80.914c0,49.742,40.467,90.209,90.209,90.209   C409.863,458.045,450.33,417.578,450.33,367.836z M141.158,317.653c11.226,9.685,19.174,23.057,21.951,38.222h-48.082   L141.158,317.653z M97.924,434.123c-36.551,0-66.287-29.736-66.287-66.287c0-36.55,29.736-66.287,66.287-66.287   c7.918,0,15.514,1.4,22.559,3.958l-37.997,55.578c-5.345,7.819,0.173,18.713,9.863,18.713c0.008,0,0.016-0.001,0.024-0.001h70.735   C157.459,410.655,130.389,434.123,97.924,434.123z M187.473,363.411c-4.795,1.918-7.65,6.592-7.502,11.471   c-5.633-4.985-9.641-11.636-11.429-19.008c-1.518-6.261-1.369-12.837,0.521-19.174l5.087-17.052   c-5.26-8.29-11.833-15.667-19.426-21.837l7.286-10.657c7.765,18.725,4.958,11.955,12.699,30.622l8.668-29.058l-5.383-12.98   c11.088-0.327,8.94-0.264,26.592-0.784l-19.817,66.432c-2.3,7.711,0.172,15.694,5.682,20.835L187.473,363.411z M256.538,301.46   l-12.731,42.678c-2.659-0.958-5.66-0.996-8.49,0.136l-9.826,3.93l22.231-74.523c17.95-0.53,16.993-0.501,38.352-1.132   L256.538,301.46z M360.122,434.123c-36.551,0-66.287-29.736-66.287-66.287c0-24.901,13.808-46.628,34.163-57.956l20.788,61.771   c2.109,6.268,8.899,9.627,15.151,7.521c6.261-2.107,9.628-8.89,7.521-15.151l-20.793-61.786c3.091-0.444,6.245-0.686,9.457-0.686   c36.55,0,66.287,29.736,66.287,66.287C426.408,404.387,396.672,434.123,360.122,434.123z" fill="#22313f"/>
</g>
<g>
</g>
<g>
</g>
<g>
</g>
<g>
</g>
<g>
</g>
<g>
</g>
<g>
</g>
<g>
</g>
<g>
</g>
<g>
</g>
<g>
</g>
<g>
</g>
<g>
</g>
<g>
</g>
<g>
</g>
</svg>
